<svg id="visual" viewBox="0 0 1500 500" width="1500" height="500" xmlns="http://www.w3.org/2000/svg" xmlns:xlink="http://www.w3.org/1999/xlink" version="1.1"><rect x="0" y="0" width="1500" height="500" fill="#F7CACA"></rect><defs><linearGradient id="grad1_0" x1="66.7%" y1="0%" x2="100%" y2="100%"><stop offset="-10%" stop-color="#715df2" stop-opacity="1"></stop><stop offset="110%" stop-color="#715df2" stop-opacity="1"></stop></linearGradient></defs><defs><linearGradient id="grad1_1" x1="66.7%" y1="0%" x2="100%" y2="100%"><stop offset="-10%" stop-color="#715df2" stop-opacity="1"></stop><stop offset="110%" stop-color="#d56dce" stop-opacity="1"></stop></linearGradient></defs><defs><linearGradient id="grad1_2" x1="66.7%" y1="0%" x2="100%" y2="100%"><stop offset="-10%" stop-color="#f697bc" stop-opacity="1"></stop><stop offset="110%" stop-color="#d56dce" stop-opacity="1"></stop></linearGradient></defs><defs><linearGradient id="grad1_3" x1="66.7%" y1="0%" x2="100%" y2="100%"><stop offset="-10%" stop-color="#f697bc" stop-opacity="1"></stop><stop offset="110%" stop-color="#f7caca" stop-opacity="1"></stop></linearGradient></defs><defs><linearGradient id="grad2_0" x1="0%" y1="0%" x2="33.3%" y2="100%"><stop offset="-10%" stop-color="#715df2" stop-opacity="1"></stop><stop offset="110%" stop-color="#715df2" stop-opacity="1"></stop></linearGradient></defs><defs><linearGradient id="grad2_1" x1="0%" y1="0%" x2="33.3%" y2="100%"><stop offset="-10%" stop-color="#d56dce" stop-opacity="1"></stop><stop offset="110%" stop-color="#715df2" stop-opacity="1"></stop></linearGradient></defs><defs><linearGradient id="grad2_2" x1="0%" y1="0%" x2="33.3%" y2="100%"><stop offset="-10%" stop-color="#d56dce" stop-opacity="1"></stop><stop offset="110%" stop-color="#f697bc" stop-opacity="1"></stop></linearGradient></defs><defs><linearGradient id="grad2_3" x1="0%" y1="0%" x2="33.3%" y2="100%"><stop offset="-10%" stop-color="#f7caca" stop-opacity="1"></stop><stop offset="110%" stop-color="#f697bc" stop-opacity="1"></stop></linearGradient></defs><g transform="translate(1500, 0)"><path d="M0 425C-44.7 389.9 -89.4 354.9 -139.3 336.3C-189.2 317.7 -244.3 315.6 -289.9 289.9C-335.5 264.2 -371.7 214.9 -392.6 162.6C-413.6 110.4 -419.3 55.2 -425 0L0 0Z" fill="#f9b1be"></path><path d="M0 318.8C-33.5 292.5 -67.1 266.2 -104.5 252.2C-141.9 238.3 -183.2 236.7 -217.4 217.4C-251.7 198.2 -278.8 161.2 -294.5 122C-310.2 82.8 -314.5 41.4 -318.7 0L0 0Z" fill="#ea80c2"></path><path d="M0 212.5C-22.4 195 -44.7 177.4 -69.6 168.1C-94.6 158.9 -122.1 157.8 -145 145C-167.8 132.1 -185.9 107.4 -196.3 81.3C-206.8 55.2 -209.6 27.6 -212.5 0L0 0Z" fill="#b061df"></path><path d="M0 106.3C-11.2 97.5 -22.4 88.7 -34.8 84.1C-47.3 79.4 -61.1 78.9 -72.5 72.5C-83.9 66.1 -92.9 53.7 -98.2 40.7C-103.4 27.6 -104.8 13.8 -106.2 0L0 0Z" fill="#715df2"></path></g><g transform="translate(0, 500)"><path d="M0 -425C48.4 -397.4 96.8 -369.8 144.3 -348.3C191.8 -326.8 238.5 -311.5 282.8 -282.8C327.2 -254.1 369.3 -212 392.6 -162.6C416 -113.3 420.5 -56.6 425 0L0 0Z" fill="#f9b1be"></path><path d="M0 -318.7C36.3 -298 72.6 -277.3 108.2 -261.2C143.8 -245.1 178.8 -233.7 212.1 -212.1C245.4 -190.6 277 -159 294.5 -122C312 -84.9 315.4 -42.5 318.8 0L0 0Z" fill="#ea80c2"></path><path d="M0 -212.5C24.2 -198.7 48.4 -184.9 72.1 -174.2C95.9 -163.4 119.2 -155.8 141.4 -141.4C163.6 -127.1 184.7 -106 196.3 -81.3C208 -56.6 210.2 -28.3 212.5 0L0 0Z" fill="#b061df"></path><path d="M0 -106.2C12.1 -99.3 24.2 -92.4 36.1 -87.1C47.9 -81.7 59.6 -77.9 70.7 -70.7C81.8 -63.5 92.3 -53 98.2 -40.7C104 -28.3 105.1 -14.2 106.3 0L0 0Z" fill="#715df2"></path></g></svg>